<?xml version="1.0" encoding="iso-8859-1"?>
<!-- Generator: Adobe Illustrator 17.0.0, SVG Export Plug-In . SVG Version: 6.00 Build 0)  -->
<!DOCTYPE svg PUBLIC "-//W3C//DTD SVG 1.1//EN" "http://www.w3.org/Graphics/SVG/1.1/DTD/svg11.dtd">
<svg version="1.1" id="Capa_1" xmlns="http://www.w3.org/2000/svg" xmlns:xlink="http://www.w3.org/1999/xlink" x="0px" y="0px"
	 width="538.5px" height="149.5px" viewBox="0 0 538.5 149.5" style="enable-background:new 0 0 538.5 149.5;" xml:space="preserve"
	>
<g>
	<path style="fill:#FFFFFF;" d="M189.528,48.824c-2.87-2.47-6.217-4.702-10.043-6.695c-3.826-1.991-7.932-2.989-12.314-2.989
		c-4.226,0-8.21,0.797-11.956,2.391c-3.748,1.595-6.994,3.787-9.744,6.576c-2.75,2.791-4.922,6.058-6.516,9.804
		c-1.596,3.748-2.392,7.732-2.392,11.956c0,4.226,0.796,8.21,2.392,11.956c1.593,3.747,3.766,6.994,6.516,9.744
		c2.75,2.749,5.997,4.922,9.744,6.516c3.746,1.596,7.73,2.391,11.956,2.391c4.463,0,8.627-0.855,12.494-2.57
		c3.865-1.713,7.192-4.083,9.983-7.113c0.398-0.479,0.896-0.837,1.494-1.076s1.214-0.358,1.854-0.358
		c1.035,0,1.812,0.358,2.331,1.075c0.518,0.718,0.777,1.516,0.777,2.392c0,1.276-0.359,2.271-1.076,2.989
		c-3.508,3.825-7.652,6.796-12.434,8.907c-4.782,2.112-9.923,3.168-15.423,3.168c-5.261,0-10.204-0.996-14.825-2.989
		c-4.624-1.991-8.649-4.702-12.076-8.13c-3.428-3.426-6.139-7.452-8.13-12.075c-1.993-4.622-2.989-9.565-2.989-14.825
		c0-5.261,0.996-10.202,2.989-14.825c1.991-4.622,4.702-8.668,8.13-12.135c3.426-3.467,7.452-6.197,12.076-8.19
		c4.622-1.991,9.564-2.989,14.825-2.989c5.339,0,10.342,1.037,15.004,3.108c4.663,2.074,8.747,4.902,12.255,8.489
		c0.398,0.399,0.756,0.917,1.076,1.554c0.317,0.639,0.478,1.276,0.478,1.913c0,1.037-0.359,1.834-1.076,2.392
		c-0.717,0.559-1.554,0.837-2.511,0.837C191.202,50.02,190.245,49.622,189.528,48.824z"/>
	<path style="fill:#FFFFFF;" d="M203.994,35.194c0-1.035,0.358-1.913,1.076-2.63c0.717-0.718,1.593-1.076,2.63-1.076
		c1.035,0,1.913,0.358,2.63,1.076c0.717,0.717,1.076,1.595,1.076,2.63v68.986c0,1.036-0.359,1.913-1.076,2.63
		c-0.717,0.718-1.595,1.076-2.63,1.076c-1.037,0-1.913-0.358-2.63-1.076c-0.718-0.717-1.076-1.594-1.076-2.63V35.194z"/>
	<path style="fill:#FFFFFF;" d="M218.818,36.39c0-1.354,0.478-2.511,1.435-3.467s2.111-1.435,3.467-1.435
		c1.354,0,2.511,0.478,3.467,1.435c0.956,0.957,1.435,2.113,1.435,3.467c0,1.356-0.478,2.511-1.435,3.467s-2.113,1.435-3.467,1.435
		c-1.356,0-2.511-0.478-3.467-1.435S218.818,37.746,218.818,36.39z M220.013,53.486c0-1.035,0.359-1.913,1.076-2.63
		c0.717-0.718,1.594-1.076,2.63-1.076c1.035,0,1.913,0.358,2.63,1.076c0.717,0.717,1.076,1.595,1.076,2.63v50.693
		c0,1.036-0.358,1.913-1.076,2.63c-0.717,0.718-1.596,1.076-2.63,1.076c-1.037,0-1.913-0.358-2.63-1.076
		c-0.717-0.717-1.076-1.594-1.076-2.63V53.486z"/>
	<path style="fill:#FFFFFF;" d="M235.555,53.486c0-1.035,0.359-1.913,1.076-2.63c0.717-0.718,1.594-1.076,2.63-1.076
		c1.035,0,1.913,0.358,2.63,1.076c0.717,0.717,1.076,1.595,1.076,2.63v1.555c1.833-1.594,3.946-2.87,6.337-3.826
		s4.941-1.435,7.652-1.435c2.948,0,5.739,0.559,8.369,1.674c2.63,1.117,4.92,2.651,6.875,4.603c1.952,1.954,3.486,4.244,4.603,6.875
		c1.115,2.63,1.674,5.421,1.674,8.369v32.879c0,1.036-0.359,1.913-1.076,2.63c-0.717,0.718-1.595,1.076-2.63,1.076
		c-1.037,0-1.913-0.358-2.63-1.076c-0.717-0.717-1.076-1.594-1.076-2.63V71.301c0-1.913-0.379-3.725-1.136-5.44
		c-0.759-1.713-1.775-3.208-3.049-4.483c-1.276-1.274-2.771-2.271-4.483-2.989c-1.715-0.718-3.527-1.076-5.44-1.076
		s-3.707,0.358-5.38,1.076c-1.674,0.717-3.149,1.674-4.424,2.869c-1.276,1.196-2.271,2.612-2.989,4.244
		c-0.717,1.635-1.117,3.369-1.196,5.201v33.477c0,1.036-0.358,1.913-1.076,2.63c-0.717,0.718-1.596,1.076-2.63,1.076
		c-1.037,0-1.913-0.358-2.63-1.076c-0.717-0.717-1.076-1.594-1.076-2.63V53.486H235.555z"/>
	<path style="fill:#FFFFFF;" d="M285.411,36.39c0-1.354,0.478-2.511,1.435-3.467s2.111-1.435,3.467-1.435
		c1.354,0,2.511,0.478,3.467,1.435c0.956,0.957,1.435,2.113,1.435,3.467c0,1.356-0.478,2.511-1.435,3.467s-2.113,1.435-3.467,1.435
		c-1.356,0-2.511-0.478-3.467-1.435S285.411,37.746,285.411,36.39z M286.606,53.486c0-1.035,0.359-1.913,1.076-2.63
		c0.717-0.718,1.594-1.076,2.63-1.076c1.035,0,1.913,0.358,2.63,1.076c0.717,0.717,1.076,1.595,1.076,2.63v50.693
		c0,1.036-0.358,1.913-1.076,2.63c-0.717,0.718-1.596,1.076-2.63,1.076c-1.037,0-1.913-0.358-2.63-1.076
		c-0.717-0.717-1.076-1.594-1.076-2.63V53.486z"/>
	<path style="fill:#FFFFFF;" d="M301.192,35.313c0-1.035,0.358-1.913,1.076-2.63c0.717-0.717,1.594-1.076,2.63-1.076
		c1.035,0,1.913,0.358,2.63,1.076c0.717,0.718,1.076,1.596,1.076,2.63v39.694l24.151-24.032c0.717-0.717,1.593-1.076,2.63-1.076
		c1.035,0,1.914,0.358,2.63,1.076c0.718,0.718,1.076,1.596,1.076,2.63c0,1.037-0.358,1.913-1.076,2.63l-17.216,16.738l18.292,29.411
		c0.317,0.559,0.479,1.156,0.479,1.794c0,0.878-0.34,1.733-1.017,2.57c-0.678,0.837-1.535,1.255-2.57,1.255
		c-1.356,0-2.433-0.637-3.228-1.912l-17.336-27.738l-6.814,6.815v19.01c0,1.036-0.359,1.913-1.076,2.63
		c-0.717,0.718-1.595,1.076-2.63,1.076c-1.037,0-1.913-0.358-2.63-1.076c-0.717-0.717-1.076-1.594-1.076-2.63V35.313H301.192z"/>
</g>
<g>
	<path style="fill:#FFFFFF;" d="M390.268,97.006c-2.631,2.95-5.799,5.481-9.506,7.592c-3.707,2.113-7.711,3.169-12.016,3.169
		c-3.986,0-7.711-0.718-11.178-2.152c-3.469-1.435-6.518-3.426-9.146-5.979c-2.631-2.55-4.705-5.578-6.217-9.086
		c-1.516-3.507-2.271-7.332-2.271-11.478c0-3.985,0.734-7.751,2.211-11.298c1.475-3.546,3.506-6.636,6.098-9.266
		c2.59-2.63,5.658-4.702,9.205-6.217c3.547-1.513,7.393-2.271,11.539-2.271c3.824,0,7.471,0.777,10.939,2.331
		c3.467,1.554,6.516,3.646,9.146,6.277c2.629,2.63,4.721,5.7,6.275,9.206c1.555,3.508,2.332,7.254,2.332,11.239V104.3
		c0,1.037-0.359,1.913-1.076,2.631c-0.717,0.717-1.596,1.075-2.631,1.075c-1.037,0-1.912-0.358-2.629-1.075
		c-0.719-0.718-1.076-1.594-1.076-2.631v-7.294H390.268z M390.268,79.072c0-2.948-0.559-5.739-1.674-8.369
		c-1.117-2.63-2.652-4.921-4.604-6.875c-1.955-1.952-4.244-3.486-6.875-4.603c-2.631-1.116-5.422-1.674-8.369-1.674
		c-2.949,0-5.721,0.558-8.309,1.674c-2.592,1.117-4.863,2.65-6.814,4.603c-1.955,1.954-3.488,4.245-4.604,6.875
		c-1.117,2.63-1.674,5.421-1.674,8.369c0,2.949,0.557,5.72,1.674,8.31c1.115,2.591,2.648,4.862,4.604,6.814
		c1.951,1.954,4.223,3.487,6.814,4.603c2.588,1.117,5.359,1.674,8.309,1.674c2.869,0,5.578-0.537,8.131-1.613
		c2.549-1.076,4.801-2.571,6.754-4.483c1.953-1.913,3.508-4.164,4.664-6.756C389.449,85.031,390.105,82.181,390.268,79.072z"/>
	<path style="fill:#FFFFFF;" d="M404.255,53.486c0-1.035,0.358-1.913,1.076-2.63c0.717-0.718,1.593-1.076,2.63-1.076
		c1.035,0,1.913,0.358,2.631,1.076c0.717,0.717,1.075,1.595,1.075,2.63v5.978c2.631-2.948,5.778-5.24,9.445-6.875
		c3.665-1.633,7.652-2.451,11.956-2.451c4.065,0,7.85,0.759,11.358,2.272c3.506,1.515,6.555,3.586,9.146,6.217
		c2.59,2.63,4.643,5.679,6.157,9.146c1.514,3.467,2.272,7.155,2.272,11.059c0,3.986-0.777,7.732-2.332,11.238
		c-1.554,3.509-3.646,6.576-6.276,9.206c-2.631,2.631-5.68,4.723-9.146,6.277c-3.467,1.554-7.113,2.331-10.939,2.331
		c-4.465-0.159-8.53-1.295-12.195-3.407c-3.667-2.111-6.814-4.604-9.445-7.473v28.813c0,1.035-0.358,1.913-1.075,2.631
		c-0.718,0.717-1.596,1.075-2.631,1.075c-1.037,0-1.913-0.358-2.63-1.075c-0.718-0.718-1.076-1.596-1.076-2.631V53.486H404.255z
		 M411.667,78.833c0.079,3.108,0.718,5.978,1.913,8.608c1.196,2.63,2.75,4.901,4.663,6.814s4.144,3.407,6.695,4.483
		c2.55,1.076,5.261,1.614,8.13,1.614c2.948,0,5.739-0.557,8.369-1.674c2.63-1.115,4.921-2.649,6.875-4.603
		c1.952-1.952,3.485-4.245,4.603-6.875c1.115-2.63,1.674-5.42,1.674-8.369c0-2.948-0.559-5.718-1.674-8.31
		c-1.117-2.589-2.65-4.86-4.603-6.814c-1.954-1.952-4.245-3.486-6.875-4.603c-2.63-1.115-5.421-1.674-8.369-1.674
		c-2.869,0-5.58,0.538-8.13,1.614c-2.552,1.076-4.782,2.531-6.695,4.364c-1.913,1.834-3.467,4.005-4.663,6.516
		c-1.195,2.511-1.834,5.201-1.913,8.07V78.833z"/>
	<path style="fill:#FFFFFF;" d="M467.979,53.486c0-1.035,0.358-1.913,1.076-2.63c0.717-0.718,1.593-1.076,2.63-1.076
		c1.035,0,1.913,0.358,2.631,1.076c0.717,0.717,1.075,1.595,1.075,2.63v5.978c2.631-2.948,5.778-5.24,9.445-6.875
		c3.665-1.633,7.652-2.451,11.956-2.451c4.065,0,7.85,0.759,11.358,2.272c3.506,1.515,6.555,3.586,9.146,6.217
		c2.59,2.63,4.643,5.679,6.157,9.146c1.514,3.467,2.272,7.155,2.272,11.059c0,3.986-0.777,7.732-2.332,11.238
		c-1.554,3.509-3.646,6.576-6.276,9.206c-2.631,2.631-5.68,4.723-9.146,6.277c-3.467,1.554-7.113,2.331-10.939,2.331
		c-4.465-0.159-8.53-1.295-12.195-3.407c-3.667-2.111-6.814-4.604-9.445-7.473v28.813c0,1.035-0.358,1.913-1.075,2.631
		c-0.718,0.717-1.596,1.075-2.631,1.075c-1.037,0-1.913-0.358-2.63-1.075c-0.718-0.718-1.076-1.596-1.076-2.631L467.979,53.486
		L467.979,53.486z M475.391,78.833c0.079,3.108,0.718,5.978,1.913,8.608c1.196,2.63,2.75,4.901,4.663,6.814s4.144,3.407,6.695,4.483
		c2.55,1.076,5.261,1.614,8.13,1.614c2.948,0,5.739-0.557,8.369-1.674c2.63-1.115,4.921-2.649,6.875-4.603
		c1.952-1.952,3.485-4.245,4.603-6.875c1.115-2.63,1.674-5.42,1.674-8.369c0-2.948-0.559-5.718-1.674-8.31
		c-1.117-2.589-2.65-4.86-4.603-6.814c-1.954-1.952-4.245-3.486-6.875-4.603c-2.63-1.115-5.421-1.674-8.369-1.674
		c-2.869,0-5.58,0.538-8.13,1.614c-2.552,1.076-4.782,2.531-6.695,4.364c-1.913,1.834-3.467,4.005-4.663,6.516
		c-1.195,2.511-1.834,5.201-1.913,8.07L475.391,78.833L475.391,78.833z"/>
</g>
<path style="fill:#ED1879;" d="M109.507,72.101c0,0,8.411-8.008,6.015-22.867c-2.397-14.859-15.709-22.296-25.834-22.296
	S68.83,38.369,68.83,38.369S58.744,26.687,46.622,27s-23.456,9.123-24.758,23.312c-1.302,14.189,6.89,21.783,6.89,21.783H41.42
	l8.042-12.351l15.265,27.128l17.389-40.893L95.82,72.101H109.507z"/>
<path style="fill:#ED1879;" d="M30.673,74.101c0,0,26.867,29.607,29.119,32.111c2.253,2.504,4.518,5.708,8.707,5.708
	c4.189,0,5.795-1.826,7.84-4.032s31.412-33.787,31.412-33.787H94.611L82.307,50.644l-17.329,40.75L49.339,63.601l-6.833,10.5H30.673
	z"/>
</svg>
